<svg xmlns="http://www.w3.org/2000/svg" viewBox="0 0 512 512"><defs><style>.cls-1{fill:#fafbfe;}.cls-2{fill:#021b79;}</style></defs><g id="Layer_2" data-name="Layer 2"><g id="Layer_1-2" data-name="Layer 1"><circle class="cls-1" cx="256" cy="256" r="256"/><polygon class="cls-2" points="401.13 257.57 387.88 261.09 386.64 261.42 368.24 266.29 359.26 268.67 333.04 268.67 333.04 246.81 360.61 246.81 368.4 248.88 369.64 249.21 383.48 252.89 383.69 252.94 396.42 256.32 401.13 257.57"/><path class="cls-2" d="M333,143.61h71.78l1.41-.72,27-13.78,1.14-.58L447.15,122l.19-.1a10.34,10.34,0,0,0-1.78-.15H316L197.14,240.64c-24.72-24.72-101.68-101.68-114-114L64.67,108.09V257.74c0,55.06,0,109.69,0,119.94v26.23L197.14,271.43,316,390.31h130l-11.74-6-.19-.1-12.78-6.52-1.14-.58-17-8.66H333ZM86.34,351.45c0-20.95,0-51.31,0-82.78h82.76Zm0-104.64v-86.2l86.18,86.2Zm225-89.6v89.6H221.76Zm0,111.46v86.19l-86.2-86.19Z"/></g></g></svg>